<?xml version="1.0" encoding="utf-8" standalone="no"?>
<!DOCTYPE svg PUBLIC "-//W3C//DTD SVG 1.1//EN"
  "http://www.w3.org/Graphics/SVG/1.1/DTD/svg11.dtd">
<svg xmlns:xlink="http://www.w3.org/1999/xlink" width="719.226406pt" height="496.236562pt" viewBox="0 0 719.226406 496.236562" xmlns="http://www.w3.org/2000/svg" version="1.1">
 <metadata>
  <rdf:RDF xmlns:dc="http://purl.org/dc/elements/1.1/" xmlns:cc="http://creativecommons.org/ns#" xmlns:rdf="http://www.w3.org/1999/02/22-rdf-syntax-ns#">
   <cc:Work>
    <dc:type rdf:resource="http://purl.org/dc/dcmitype/StillImage"/>
    <dc:date>2026-07-12T20:40:37.412288</dc:date>
    <dc:format>image/svg+xml</dc:format>
    <dc:creator>
     <cc:Agent>
      <dc:title>Matplotlib v3.11.0, https://matplotlib.org/</dc:title>
     </cc:Agent>
    </dc:creator>
   </cc:Work>
  </rdf:RDF>
 </metadata>
 <defs>
  <style type="text/css">*{stroke-linejoin: round; stroke-linecap: butt}</style>
 </defs>
 <g id="figure_1">
  <g id="patch_1">
   <path d="M 0 496.236562 
L 719.226406 496.236562 
L 719.226406 0 
L 0 0 
z
" style="fill: #ffffff"/>
  </g>
  <g id="axes_1">
   <g id="patch_2">
    <path d="M 50.466406 225.346953 
L 712.026406 225.346953 
L 712.026406 22.318125 
L 50.466406 22.318125 
z
" style="fill: #ffffff"/>
   </g>
   <g id="matplotlib.axis_1">
    <g id="xtick_1">
     <g id="line2d_1">
      <defs>
       <path id="md525ca06e0" d="M 0 0 
L 0 3.5 
" style="stroke: #000000; stroke-width: 0.8"/>
      </defs>
      <g>
       <use xlink:href="#md525ca06e0" x="80.537315" y="225.346953" style="stroke: #000000; stroke-width: 0.8"/>
      </g>
     </g>
    </g>
    <g id="xtick_2">
     <g id="line2d_2">
      <g>
       <use xlink:href="#md525ca06e0" x="190.085254" y="225.346953" style="stroke: #000000; stroke-width: 0.8"/>
      </g>
     </g>
    </g>
    <g id="xtick_3">
     <g id="line2d_3">
      <g>
       <use xlink:href="#md525ca06e0" x="299.633192" y="225.346953" style="stroke: #000000; stroke-width: 0.8"/>
      </g>
     </g>
    </g>
    <g id="xtick_4">
     <g id="line2d_4">
      <g>
       <use xlink:href="#md525ca06e0" x="409.181131" y="225.346953" style="stroke: #000000; stroke-width: 0.8"/>
      </g>
     </g>
    </g>
    <g id="xtick_5">
     <g id="line2d_5">
      <g>
       <use xlink:href="#md525ca06e0" x="518.729069" y="225.346953" style="stroke: #000000; stroke-width: 0.8"/>
      </g>
     </g>
    </g>
    <g id="xtick_6">
     <g id="line2d_6">
      <g>
       <use xlink:href="#md525ca06e0" x="628.277007" y="225.346953" style="stroke: #000000; stroke-width: 0.8"/>
      </g>
     </g>
    </g>
   </g>
   <g id="matplotlib.axis_2">
    <g id="ytick_1">
     <g id="line2d_7">
      <defs>
       <path id="m2af0b9ce78" d="M 0 0 
L -3.5 0 
" style="stroke: #000000; stroke-width: 0.8"/>
      </defs>
      <g>
       <use xlink:href="#m2af0b9ce78" x="50.466406" y="216.11837" style="stroke: #000000; stroke-width: 0.8"/>
      </g>
     </g>
     <g id="text_1">
      <!-- 0.0 -->
      <g transform="translate(27.563281 219.917198) scale(0.1 -0.1)">
       <defs>
        <path id="DejaVuSans-13" d="M 2034 4250 
Q 1547 4250 1301 3770 
Q 1056 3291 1056 2328 
Q 1056 1369 1301 889 
Q 1547 409 2034 409 
Q 2525 409 2770 889 
Q 3016 1369 3016 2328 
Q 3016 3291 2770 3770 
Q 2525 4250 2034 4250 
z
M 2034 4750 
Q 2819 4750 3233 4129 
Q 3647 3509 3647 2328 
Q 3647 1150 3233 529 
Q 2819 -91 2034 -91 
Q 1250 -91 836 529 
Q 422 1150 422 2328 
Q 422 3509 836 4129 
Q 1250 4750 2034 4750 
z
" transform="scale(0.015625)"/>
        <path id="DejaVuSans-11" d="M 684 794 
L 1344 794 
L 1344 0 
L 684 0 
L 684 794 
z
" transform="scale(0.015625)"/>
       </defs>
       <use xlink:href="#DejaVuSans-13"/>
       <use xlink:href="#DejaVuSans-11" transform="translate(63.625 0)"/>
       <use xlink:href="#DejaVuSans-13" transform="translate(95.40625 0)"/>
      </g>
     </g>
    </g>
    <g id="ytick_2">
     <g id="line2d_8">
      <g>
       <use xlink:href="#m2af0b9ce78" x="50.466406" y="193.046912" style="stroke: #000000; stroke-width: 0.8"/>
      </g>
     </g>
     <g id="text_2">
      <!-- 2.5 -->
      <g transform="translate(27.563281 196.84574) scale(0.1 -0.1)">
       <defs>
        <path id="DejaVuSans-15" d="M 1228 531 
L 3431 531 
L 3431 0 
L 469 0 
L 469 531 
Q 828 903 1448 1529 
Q 2069 2156 2228 2338 
Q 2531 2678 2651 2914 
Q 2772 3150 2772 3378 
Q 2772 3750 2511 3984 
Q 2250 4219 1831 4219 
Q 1534 4219 1204 4116 
Q 875 4013 500 3803 
L 500 4441 
Q 881 4594 1212 4672 
Q 1544 4750 1819 4750 
Q 2544 4750 2975 4387 
Q 3406 4025 3406 3419 
Q 3406 3131 3298 2873 
Q 3191 2616 2906 2266 
Q 2828 2175 2409 1742 
Q 1991 1309 1228 531 
z
" transform="scale(0.015625)"/>
        <path id="DejaVuSans-18" d="M 691 4666 
L 3169 4666 
L 3169 4134 
L 1269 4134 
L 1269 2991 
Q 1406 3038 1543 3061 
Q 1681 3084 1819 3084 
Q 2600 3084 3056 2656 
Q 3513 2228 3513 1497 
Q 3513 744 3044 326 
Q 2575 -91 1722 -91 
Q 1428 -91 1123 -41 
Q 819 9 494 109 
L 494 744 
Q 775 591 1075 516 
Q 1375 441 1709 441 
Q 2250 441 2565 725 
Q 2881 1009 2881 1497 
Q 2881 1984 2565 2268 
Q 2250 2553 1709 2553 
Q 1456 2553 1204 2497 
Q 953 2441 691 2322 
L 691 4666 
z
" transform="scale(0.015625)"/>
       </defs>
       <use xlink:href="#DejaVuSans-15"/>
       <use xlink:href="#DejaVuSans-11" transform="translate(63.625 0)"/>
       <use xlink:href="#DejaVuSans-18" transform="translate(95.40625 0)"/>
      </g>
     </g>
    </g>
    <g id="ytick_3">
     <g id="line2d_9">
      <g>
       <use xlink:href="#m2af0b9ce78" x="50.466406" y="169.975455" style="stroke: #000000; stroke-width: 0.8"/>
      </g>
     </g>
     <g id="text_3">
      <!-- 5.0 -->
      <g transform="translate(27.563281 173.774283) scale(0.1 -0.1)">
       <use xlink:href="#DejaVuSans-18"/>
       <use xlink:href="#DejaVuSans-11" transform="translate(63.625 0)"/>
       <use xlink:href="#DejaVuSans-13" transform="translate(95.40625 0)"/>
      </g>
     </g>
    </g>
    <g id="ytick_4">
     <g id="line2d_10">
      <g>
       <use xlink:href="#m2af0b9ce78" x="50.466406" y="146.903997" style="stroke: #000000; stroke-width: 0.8"/>
      </g>
     </g>
     <g id="text_4">
      <!-- 7.5 -->
      <g transform="translate(27.563281 150.702825) scale(0.1 -0.1)">
       <defs>
        <path id="DejaVuSans-1a" d="M 525 4666 
L 3525 4666 
L 3525 4397 
L 1831 0 
L 1172 0 
L 2766 4134 
L 525 4134 
L 525 4666 
z
" transform="scale(0.015625)"/>
       </defs>
       <use xlink:href="#DejaVuSans-1a"/>
       <use xlink:href="#DejaVuSans-11" transform="translate(63.625 0)"/>
       <use xlink:href="#DejaVuSans-18" transform="translate(95.40625 0)"/>
      </g>
     </g>
    </g>
    <g id="ytick_5">
     <g id="line2d_11">
      <g>
       <use xlink:href="#m2af0b9ce78" x="50.466406" y="123.832539" style="stroke: #000000; stroke-width: 0.8"/>
      </g>
     </g>
     <g id="text_5">
      <!-- 10.0 -->
      <g transform="translate(21.200781 127.631367) scale(0.1 -0.1)">
       <defs>
        <path id="DejaVuSans-14" d="M 794 531 
L 1825 531 
L 1825 4091 
L 703 3866 
L 703 4441 
L 1819 4666 
L 2450 4666 
L 2450 531 
L 3481 531 
L 3481 0 
L 794 0 
L 794 531 
z
" transform="scale(0.015625)"/>
       </defs>
       <use xlink:href="#DejaVuSans-14"/>
       <use xlink:href="#DejaVuSans-13" transform="translate(63.625 0)"/>
       <use xlink:href="#DejaVuSans-11" transform="translate(127.25 0)"/>
       <use xlink:href="#DejaVuSans-13" transform="translate(159.03125 0)"/>
      </g>
     </g>
    </g>
    <g id="ytick_6">
     <g id="line2d_12">
      <g>
       <use xlink:href="#m2af0b9ce78" x="50.466406" y="100.761081" style="stroke: #000000; stroke-width: 0.8"/>
      </g>
     </g>
     <g id="text_6">
      <!-- 12.5 -->
      <g transform="translate(21.200781 104.559909) scale(0.1 -0.1)">
       <use xlink:href="#DejaVuSans-14"/>
       <use xlink:href="#DejaVuSans-15" transform="translate(63.625 0)"/>
       <use xlink:href="#DejaVuSans-11" transform="translate(127.25 0)"/>
       <use xlink:href="#DejaVuSans-18" transform="translate(159.03125 0)"/>
      </g>
     </g>
    </g>
    <g id="ytick_7">
     <g id="line2d_13">
      <g>
       <use xlink:href="#m2af0b9ce78" x="50.466406" y="77.689624" style="stroke: #000000; stroke-width: 0.8"/>
      </g>
     </g>
     <g id="text_7">
      <!-- 15.0 -->
      <g transform="translate(21.200781 81.488452) scale(0.1 -0.1)">
       <use xlink:href="#DejaVuSans-14"/>
       <use xlink:href="#DejaVuSans-18" transform="translate(63.625 0)"/>
       <use xlink:href="#DejaVuSans-11" transform="translate(127.25 0)"/>
       <use xlink:href="#DejaVuSans-13" transform="translate(159.03125 0)"/>
      </g>
     </g>
    </g>
    <g id="ytick_8">
     <g id="line2d_14">
      <g>
       <use xlink:href="#m2af0b9ce78" x="50.466406" y="54.618166" style="stroke: #000000; stroke-width: 0.8"/>
      </g>
     </g>
     <g id="text_8">
      <!-- 17.5 -->
      <g transform="translate(21.200781 58.416994) scale(0.1 -0.1)">
       <use xlink:href="#DejaVuSans-14"/>
       <use xlink:href="#DejaVuSans-1a" transform="translate(63.625 0)"/>
       <use xlink:href="#DejaVuSans-11" transform="translate(127.25 0)"/>
       <use xlink:href="#DejaVuSans-18" transform="translate(159.03125 0)"/>
      </g>
     </g>
    </g>
    <g id="ytick_9">
     <g id="line2d_15">
      <g>
       <use xlink:href="#m2af0b9ce78" x="50.466406" y="31.546708" style="stroke: #000000; stroke-width: 0.8"/>
      </g>
     </g>
     <g id="text_9">
      <!-- 20.0 -->
      <g transform="translate(21.200781 35.345536) scale(0.1 -0.1)">
       <use xlink:href="#DejaVuSans-15"/>
       <use xlink:href="#DejaVuSans-13" transform="translate(63.625 0)"/>
       <use xlink:href="#DejaVuSans-11" transform="translate(127.25 0)"/>
       <use xlink:href="#DejaVuSans-13" transform="translate(159.03125 0)"/>
      </g>
     </g>
    </g>
    <g id="text_10">
     <!-- input class -->
     <g transform="translate(14.798438 150.694258) rotate(-90) scale(0.1 -0.1)">
      <defs>
       <path id="DejaVuSans-4c" d="M 603 3500 
L 1178 3500 
L 1178 0 
L 603 0 
L 603 3500 
z
M 603 4863 
L 1178 4863 
L 1178 4134 
L 603 4134 
L 603 4863 
z
" transform="scale(0.015625)"/>
       <path id="DejaVuSans-51" d="M 3513 2113 
L 3513 0 
L 2938 0 
L 2938 2094 
Q 2938 2591 2744 2837 
Q 2550 3084 2163 3084 
Q 1697 3084 1428 2787 
Q 1159 2491 1159 1978 
L 1159 0 
L 581 0 
L 581 3500 
L 1159 3500 
L 1159 2956 
Q 1366 3272 1645 3428 
Q 1925 3584 2291 3584 
Q 2894 3584 3203 3211 
Q 3513 2838 3513 2113 
z
" transform="scale(0.015625)"/>
       <path id="DejaVuSans-53" d="M 1159 525 
L 1159 -1331 
L 581 -1331 
L 581 3500 
L 1159 3500 
L 1159 2969 
Q 1341 3281 1617 3432 
Q 1894 3584 2278 3584 
Q 2916 3584 3314 3078 
Q 3713 2572 3713 1747 
Q 3713 922 3314 415 
Q 2916 -91 2278 -91 
Q 1894 -91 1617 61 
Q 1341 213 1159 525 
z
M 3116 1747 
Q 3116 2381 2855 2742 
Q 2594 3103 2138 3103 
Q 1681 3103 1420 2742 
Q 1159 2381 1159 1747 
Q 1159 1113 1420 752 
Q 1681 391 2138 391 
Q 2594 391 2855 752 
Q 3116 1113 3116 1747 
z
" transform="scale(0.015625)"/>
       <path id="DejaVuSans-58" d="M 544 1381 
L 544 3500 
L 1119 3500 
L 1119 1403 
Q 1119 906 1312 657 
Q 1506 409 1894 409 
Q 2359 409 2629 706 
Q 2900 1003 2900 1516 
L 2900 3500 
L 3475 3500 
L 3475 0 
L 2900 0 
L 2900 538 
Q 2691 219 2414 64 
Q 2138 -91 1772 -91 
Q 1169 -91 856 284 
Q 544 659 544 1381 
z
M 1991 3584 
L 1991 3584 
z
" transform="scale(0.015625)"/>
       <path id="DejaVuSans-57" d="M 1172 4494 
L 1172 3500 
L 2356 3500 
L 2356 3053 
L 1172 3053 
L 1172 1153 
Q 1172 725 1289 603 
Q 1406 481 1766 481 
L 2356 481 
L 2356 0 
L 1766 0 
Q 1100 0 847 248 
Q 594 497 594 1153 
L 594 3053 
L 172 3053 
L 172 3500 
L 594 3500 
L 594 4494 
L 1172 4494 
z
" transform="scale(0.015625)"/>
       <path id="DejaVuSans-3" transform="scale(0.015625)"/>
       <path id="DejaVuSans-46" d="M 3122 3366 
L 3122 2828 
Q 2878 2963 2633 3030 
Q 2388 3097 2138 3097 
Q 1578 3097 1268 2742 
Q 959 2388 959 1747 
Q 959 1106 1268 751 
Q 1578 397 2138 397 
Q 2388 397 2633 464 
Q 2878 531 3122 666 
L 3122 134 
Q 2881 22 2623 -34 
Q 2366 -91 2075 -91 
Q 1284 -91 818 406 
Q 353 903 353 1747 
Q 353 2603 823 3093 
Q 1294 3584 2113 3584 
Q 2378 3584 2631 3529 
Q 2884 3475 3122 3366 
z
" transform="scale(0.015625)"/>
       <path id="DejaVuSans-4f" d="M 603 4863 
L 1178 4863 
L 1178 0 
L 603 0 
L 603 4863 
z
" transform="scale(0.015625)"/>
       <path id="DejaVuSans-44" d="M 2194 1759 
Q 1497 1759 1228 1600 
Q 959 1441 959 1056 
Q 959 750 1161 570 
Q 1363 391 1709 391 
Q 2188 391 2477 730 
Q 2766 1069 2766 1631 
L 2766 1759 
L 2194 1759 
z
M 3341 1997 
L 3341 0 
L 2766 0 
L 2766 531 
Q 2569 213 2275 61 
Q 1981 -91 1556 -91 
Q 1019 -91 701 211 
Q 384 513 384 1019 
Q 384 1609 779 1909 
Q 1175 2209 1959 2209 
L 2766 2209 
L 2766 2266 
Q 2766 2663 2505 2880 
Q 2244 3097 1772 3097 
Q 1472 3097 1187 3025 
Q 903 2953 641 2809 
L 641 3341 
Q 956 3463 1253 3523 
Q 1550 3584 1831 3584 
Q 2591 3584 2966 3190 
Q 3341 2797 3341 1997 
z
" transform="scale(0.015625)"/>
       <path id="DejaVuSans-56" d="M 2834 3397 
L 2834 2853 
Q 2591 2978 2328 3040 
Q 2066 3103 1784 3103 
Q 1356 3103 1142 2972 
Q 928 2841 928 2578 
Q 928 2378 1081 2264 
Q 1234 2150 1697 2047 
L 1894 2003 
Q 2506 1872 2764 1633 
Q 3022 1394 3022 966 
Q 3022 478 2636 193 
Q 2250 -91 1575 -91 
Q 1294 -91 989 -36 
Q 684 19 347 128 
L 347 722 
Q 666 556 975 473 
Q 1284 391 1588 391 
Q 1994 391 2212 530 
Q 2431 669 2431 922 
Q 2431 1156 2273 1281 
Q 2116 1406 1581 1522 
L 1381 1569 
Q 847 1681 609 1914 
Q 372 2147 372 2553 
Q 372 3047 722 3315 
Q 1072 3584 1716 3584 
Q 2034 3584 2315 3537 
Q 2597 3491 2834 3397 
z
" transform="scale(0.015625)"/>
      </defs>
      <use xlink:href="#DejaVuSans-4c"/>
      <use xlink:href="#DejaVuSans-51" transform="translate(27.78125 0)"/>
      <use xlink:href="#DejaVuSans-53" transform="translate(91.15625 0)"/>
      <use xlink:href="#DejaVuSans-58" transform="translate(154.640625 0)"/>
      <use xlink:href="#DejaVuSans-57" transform="translate(218.015625 0)"/>
      <use xlink:href="#DejaVuSans-3" transform="translate(257.21875 0)"/>
      <use xlink:href="#DejaVuSans-46" transform="translate(289 0)"/>
      <use xlink:href="#DejaVuSans-4f" transform="translate(343.984375 0)"/>
      <use xlink:href="#DejaVuSans-44" transform="translate(371.765625 0)"/>
      <use xlink:href="#DejaVuSans-56" transform="translate(433.046875 0)"/>
      <use xlink:href="#DejaVuSans-56" transform="translate(485.140625 0)"/>
     </g>
    </g>
   </g>
   <g id="line2d_16">
    <path d="M 80.537315 216.11837 
L 134.763545 216.11837 
L 135.311285 31.546708 
L 145.718339 31.546708 
L 146.266078 142.289705 
L 151.195736 142.289705 
L 151.743475 169.975455 
L 156.673133 169.975455 
L 157.220872 133.061122 
L 162.150529 133.061122 
L 162.698269 86.918207 
L 167.627926 86.918207 
L 168.175666 151.518288 
L 173.105323 151.518288 
L 173.653063 123.832539 
L 178.58272 123.832539 
L 179.13046 169.975455 
L 184.060117 169.975455 
L 184.607857 31.546708 
L 189.537514 31.546708 
L 190.085254 151.518288 
L 195.014911 151.518288 
L 195.562651 188.432621 
L 200.492308 188.432621 
L 201.040048 68.46104 
L 205.969705 68.46104 
L 206.517445 151.518288 
L 211.447102 151.518288 
L 211.994841 77.689624 
L 216.924499 77.689624 
L 217.472238 114.603956 
L 222.401896 114.603956 
L 222.949635 188.432621 
L 227.879292 188.432621 
L 228.427032 151.518288 
L 233.356689 151.518288 
L 233.904429 40.775291 
L 238.834086 40.775291 
L 239.381826 59.232457 
L 244.311483 59.232457 
L 244.859223 188.432621 
L 249.78888 188.432621 
L 250.33662 105.375373 
L 255.266277 105.375373 
L 255.814017 133.061122 
L 260.743674 133.061122 
L 261.291414 68.46104 
L 266.221071 68.46104 
L 266.768811 169.975455 
L 277.175865 169.975455 
L 277.723604 206.889787 
L 282.653262 206.889787 
L 283.201001 105.375373 
L 288.130659 105.375373 
L 288.678398 114.603956 
L 293.608056 114.603956 
L 294.155795 96.14679 
L 299.085452 96.14679 
L 299.633192 114.603956 
L 304.562849 114.603956 
L 305.110589 133.061122 
L 310.040246 133.061122 
L 310.587986 31.546708 
L 315.517643 31.546708 
L 316.065383 133.061122 
L 320.99504 133.061122 
L 321.54278 169.975455 
L 326.472437 169.975455 
L 327.020177 96.14679 
L 331.949834 96.14679 
L 332.497574 40.775291 
L 337.427231 40.775291 
L 337.974971 197.661204 
L 342.904628 197.661204 
L 343.452368 96.14679 
L 348.382025 96.14679 
L 348.929764 133.061122 
L 353.859422 133.061122 
L 354.407161 50.003874 
L 359.336819 50.003874 
L 359.884558 142.289705 
L 364.814215 142.289705 
L 365.361955 59.232457 
L 370.291612 59.232457 
L 370.839352 31.546708 
L 375.769009 31.546708 
L 376.316749 160.746871 
L 381.246406 160.746871 
L 381.794146 114.603956 
L 386.723803 114.603956 
L 387.271543 77.689624 
L 392.2012 77.689624 
L 392.74894 142.289705 
L 397.678597 142.289705 
L 398.226337 105.375373 
L 403.155994 105.375373 
L 403.703734 59.232457 
L 408.633391 59.232457 
L 409.181131 40.775291 
L 414.110788 40.775291 
L 414.658527 59.232457 
L 419.588185 59.232457 
L 420.135924 96.14679 
L 425.065582 96.14679 
L 425.613321 188.432621 
L 430.542979 188.432621 
L 431.090718 31.546708 
L 436.020375 31.546708 
L 436.568115 169.975455 
L 441.497772 169.975455 
L 442.045512 40.775291 
L 446.975169 40.775291 
L 447.522909 206.889787 
L 452.452566 206.889787 
L 453.000306 86.918207 
L 463.40736 86.918207 
L 463.9551 50.003874 
L 468.884757 50.003874 
L 469.432497 188.432621 
L 474.362154 188.432621 
L 474.909894 197.661204 
L 479.839551 197.661204 
L 480.387291 179.204038 
L 485.316948 179.204038 
L 485.864687 114.603956 
L 490.794345 114.603956 
L 491.342084 197.661204 
L 496.271742 197.661204 
L 496.819481 123.832539 
L 501.749138 123.832539 
L 502.296878 160.746871 
L 507.226535 160.746871 
L 507.774275 179.204038 
L 518.181329 179.204038 
L 518.729069 197.661204 
L 523.658726 197.661204 
L 524.206466 160.746871 
L 529.136123 160.746871 
L 529.683863 31.546708 
L 534.61352 31.546708 
L 535.16126 86.918207 
L 540.090917 86.918207 
L 540.638657 197.661204 
L 545.568314 197.661204 
L 546.116054 188.432621 
L 551.045711 188.432621 
L 551.59345 133.061122 
L 556.523108 133.061122 
L 557.070847 96.14679 
L 562.000505 96.14679 
L 562.548244 114.603956 
L 567.477902 114.603956 
L 568.025641 50.003874 
L 572.955298 50.003874 
L 573.503038 188.432621 
L 578.432695 188.432621 
L 578.980435 114.603956 
L 583.910092 114.603956 
L 584.457832 206.889787 
L 589.387489 206.889787 
L 589.935229 151.518288 
L 594.864886 151.518288 
L 595.412626 133.061122 
L 600.342283 133.061122 
L 600.890023 123.832539 
L 605.81968 123.832539 
L 606.36742 77.689624 
L 611.297077 77.689624 
L 611.844817 114.603956 
L 616.774474 114.603956 
L 617.322214 179.204038 
L 622.251871 179.204038 
L 622.79961 197.661204 
L 633.206665 197.661204 
L 633.754404 77.689624 
L 638.684061 77.689624 
L 639.231801 50.003874 
L 649.638855 50.003874 
L 650.186595 105.375373 
L 655.116252 105.375373 
L 655.663992 68.46104 
L 660.593649 68.46104 
L 661.141389 40.775291 
L 666.071046 40.775291 
L 666.618786 151.518288 
L 671.548443 151.518288 
L 672.096183 50.003874 
L 677.02584 50.003874 
L 677.57358 188.432621 
L 681.955497 188.432621 
L 681.955497 188.432621 
" clip-path="url(#p803f572195)" style="fill: none; stroke: #1f77b4; stroke-width: 1.5; stroke-linecap: square"/>
   </g>
   <g id="line2d_17">
    <path d="M 80.537315 216.11837 
L 135.859024 216.11837 
L 136.406764 31.546708 
L 142.431901 31.546708 
L 142.97964 216.11837 
L 146.266078 216.11837 
L 146.813818 142.289705 
L 151.743475 142.289705 
L 152.291215 169.975455 
L 157.220872 169.975455 
L 157.768612 133.061122 
L 162.698269 133.061122 
L 163.246009 86.918207 
L 168.723406 86.918207 
L 169.271145 151.518288 
L 173.653063 151.518288 
L 174.200803 123.832539 
L 179.6782 123.832539 
L 180.225939 169.975455 
L 184.607857 169.975455 
L 185.155597 31.546708 
L 189.537514 31.546708 
L 190.085254 188.432621 
L 190.632993 151.518288 
L 195.014911 151.518288 
L 195.562651 188.432621 
L 201.040048 188.432621 
L 201.587787 68.46104 
L 207.065184 68.46104 
L 207.612924 151.518288 
L 211.447102 151.518288 
L 211.994841 77.689624 
L 216.924499 77.689624 
L 217.472238 114.603956 
L 222.949635 114.603956 
L 223.497375 188.432621 
L 228.427032 188.432621 
L 228.974772 151.518288 
L 233.356689 151.518288 
L 233.904429 40.775291 
L 239.381826 40.775291 
L 239.929566 59.232457 
L 245.406963 59.232457 
L 245.954702 188.432621 
L 250.33662 188.432621 
L 250.88436 105.375373 
L 255.814017 105.375373 
L 256.361756 133.061122 
L 261.839153 133.061122 
L 262.386893 68.46104 
L 266.768811 68.46104 
L 267.31655 169.975455 
L 274.437166 169.975455 
L 274.984906 96.14679 
L 276.080385 96.14679 
L 276.628125 188.432621 
L 277.175865 188.432621 
L 277.723604 206.889787 
L 283.748741 206.889787 
L 284.296481 105.375373 
L 288.678398 105.375373 
L 289.226138 114.603956 
L 294.155795 114.603956 
L 294.703535 96.14679 
L 300.728672 96.14679 
L 301.276411 114.603956 
L 304.562849 114.603956 
L 305.110589 133.061122 
L 311.135726 133.061122 
L 311.683465 31.546708 
L 316.065383 31.546708 
L 316.613123 133.061122 
L 322.09052 133.061122 
L 322.638259 169.975455 
L 326.472437 169.975455 
L 327.020177 96.14679 
L 332.497574 96.14679 
L 333.045313 40.775291 
L 338.52271 40.775291 
L 339.07045 197.661204 
L 343.452368 197.661204 
L 344.000107 96.14679 
L 348.929764 96.14679 
L 349.477504 133.061122 
L 354.407161 133.061122 
L 354.954901 50.003874 
L 359.884558 50.003874 
L 360.432298 142.289705 
L 365.909695 142.289705 
L 366.457435 59.232457 
L 370.839352 59.232457 
L 371.387092 31.546708 
L 376.316749 31.546708 
L 376.864489 160.746871 
L 382.341886 160.746871 
L 382.889625 114.603956 
L 387.271543 114.603956 
L 387.819283 77.689624 
L 392.74894 77.689624 
L 393.296679 142.289705 
L 398.226337 142.289705 
L 398.774076 105.375373 
L 404.799213 105.375373 
L 405.346953 59.232457 
L 408.633391 59.232457 
L 409.181131 40.775291 
L 417.397226 40.775291 
L 417.944966 160.746871 
L 419.588185 160.746871 
L 420.135924 96.14679 
L 425.613321 96.14679 
L 426.161061 188.432621 
L 431.090718 188.432621 
L 431.638458 31.546708 
L 437.115855 31.546708 
L 437.663595 169.975455 
L 441.497772 169.975455 
L 442.045512 40.775291 
L 447.522909 40.775291 
L 448.070649 206.889787 
L 453.000306 206.889787 
L 453.548046 86.918207 
L 463.40736 86.918207 
L 463.9551 50.003874 
L 469.432497 50.003874 
L 469.980236 188.432621 
L 474.909894 188.432621 
L 475.457633 197.661204 
L 479.839551 197.661204 
L 480.387291 179.204038 
L 486.412427 179.204038 
L 486.960167 114.603956 
L 491.889824 114.603956 
L 492.437564 197.661204 
L 496.271742 197.661204 
L 496.819481 123.832539 
L 502.296878 123.832539 
L 502.844618 160.746871 
L 507.774275 160.746871 
L 508.322015 179.204038 
L 518.181329 179.204038 
L 518.729069 59.232457 
L 519.276809 197.661204 
L 523.658726 197.661204 
L 524.206466 59.232457 
L 524.754206 160.746871 
L 529.683863 160.746871 
L 530.231602 31.546708 
L 535.16126 31.546708 
L 535.708999 86.918207 
L 541.186396 86.918207 
L 541.734136 197.661204 
L 545.568314 197.661204 
L 546.116054 59.232457 
L 546.663793 188.432621 
L 551.59345 188.432621 
L 552.14119 133.061122 
L 557.070847 133.061122 
L 557.618587 96.14679 
L 563.095984 96.14679 
L 563.643724 114.603956 
L 568.025641 114.603956 
L 568.573381 50.003874 
L 574.598518 50.003874 
L 575.146257 188.432621 
L 578.432695 188.432621 
L 578.980435 31.546708 
L 579.528175 31.546708 
L 580.075914 114.603956 
L 582.814613 114.603956 
L 583.362353 160.746871 
L 583.910092 160.746871 
L 584.457832 206.889787 
L 589.935229 206.889787 
L 590.482969 151.518288 
L 595.960366 151.518288 
L 596.508105 133.061122 
L 600.890023 133.061122 
L 601.437762 123.832539 
L 606.36742 123.832539 
L 606.915159 77.689624 
L 611.844817 77.689624 
L 612.392556 160.746871 
L 612.940296 114.603956 
L 616.774474 114.603956 
L 617.322214 179.204038 
L 622.79961 179.204038 
L 623.34735 197.661204 
L 631.015706 197.661204 
L 631.563445 59.232457 
L 633.754404 59.232457 
L 634.302144 77.689624 
L 638.684061 77.689624 
L 639.231801 59.232457 
L 639.779541 50.003874 
L 647.995636 50.003874 
L 648.543376 59.232457 
L 649.638855 59.232457 
L 650.186595 105.375373 
L 655.663992 105.375373 
L 656.211732 68.46104 
L 661.689129 68.46104 
L 662.236868 40.775291 
L 666.618786 40.775291 
L 667.166525 151.518288 
L 672.096183 151.518288 
L 672.643922 50.003874 
L 677.02584 50.003874 
L 677.57358 59.232457 
L 678.121319 188.432621 
L 681.955497 188.432621 
L 681.955497 188.432621 
" clip-path="url(#p803f572195)" style="fill: none; stroke: #ff7f0e; stroke-opacity: 0.8; stroke-linecap: square"/>
   </g>
   <g id="patch_3">
    <path d="M 50.466406 225.346953 
L 50.466406 22.318125 
" style="fill: none; stroke: #000000; stroke-width: 0.8; stroke-linejoin: miter; stroke-linecap: square"/>
   </g>
   <g id="patch_4">
    <path d="M 712.026406 225.346953 
L 712.026406 22.318125 
" style="fill: none; stroke: #000000; stroke-width: 0.8; stroke-linejoin: miter; stroke-linecap: square"/>
   </g>
   <g id="patch_5">
    <path d="M 50.466406 225.346953 
L 712.026406 225.346953 
" style="fill: none; stroke: #000000; stroke-width: 0.8; stroke-linejoin: miter; stroke-linecap: square"/>
   </g>
   <g id="patch_6">
    <path d="M 50.466406 22.318125 
L 712.026406 22.318125 
" style="fill: none; stroke: #000000; stroke-width: 0.8; stroke-linejoin: miter; stroke-linecap: square"/>
   </g>
   <g id="text_11">
    <!-- Decoder labels (masked time points) -->
    <g transform="translate(270.658906 16.318125) scale(0.12 -0.12)">
     <defs>
      <path id="DejaVuSans-27" d="M 1259 4147 
L 1259 519 
L 2022 519 
Q 2988 519 3436 956 
Q 3884 1394 3884 2338 
Q 3884 3275 3436 3711 
Q 2988 4147 2022 4147 
L 1259 4147 
z
M 628 4666 
L 1925 4666 
Q 3281 4666 3915 4102 
Q 4550 3538 4550 2338 
Q 4550 1131 3912 565 
Q 3275 0 1925 0 
L 628 0 
L 628 4666 
z
" transform="scale(0.015625)"/>
      <path id="DejaVuSans-48" d="M 3597 1894 
L 3597 1613 
L 953 1613 
Q 991 1019 1311 708 
Q 1631 397 2203 397 
Q 2534 397 2845 478 
Q 3156 559 3463 722 
L 3463 178 
Q 3153 47 2828 -22 
Q 2503 -91 2169 -91 
Q 1331 -91 842 396 
Q 353 884 353 1716 
Q 353 2575 817 3079 
Q 1281 3584 2069 3584 
Q 2775 3584 3186 3129 
Q 3597 2675 3597 1894 
z
M 3022 2063 
Q 3016 2534 2758 2815 
Q 2500 3097 2075 3097 
Q 1594 3097 1305 2825 
Q 1016 2553 972 2059 
L 3022 2063 
z
" transform="scale(0.015625)"/>
      <path id="DejaVuSans-52" d="M 1959 3097 
Q 1497 3097 1228 2736 
Q 959 2375 959 1747 
Q 959 1119 1226 758 
Q 1494 397 1959 397 
Q 2419 397 2687 759 
Q 2956 1122 2956 1747 
Q 2956 2369 2687 2733 
Q 2419 3097 1959 3097 
z
M 1959 3584 
Q 2709 3584 3137 3096 
Q 3566 2609 3566 1747 
Q 3566 888 3137 398 
Q 2709 -91 1959 -91 
Q 1206 -91 779 398 
Q 353 888 353 1747 
Q 353 2609 779 3096 
Q 1206 3584 1959 3584 
z
" transform="scale(0.015625)"/>
      <path id="DejaVuSans-47" d="M 2906 2969 
L 2906 4863 
L 3481 4863 
L 3481 0 
L 2906 0 
L 2906 525 
Q 2725 213 2448 61 
Q 2172 -91 1784 -91 
Q 1150 -91 751 415 
Q 353 922 353 1747 
Q 353 2572 751 3078 
Q 1150 3584 1784 3584 
Q 2172 3584 2448 3432 
Q 2725 3281 2906 2969 
z
M 947 1747 
Q 947 1113 1208 752 
Q 1469 391 1925 391 
Q 2381 391 2643 752 
Q 2906 1113 2906 1747 
Q 2906 2381 2643 2742 
Q 2381 3103 1925 3103 
Q 1469 3103 1208 2742 
Q 947 2381 947 1747 
z
" transform="scale(0.015625)"/>
      <path id="DejaVuSans-55" d="M 2631 2963 
Q 2534 3019 2420 3045 
Q 2306 3072 2169 3072 
Q 1681 3072 1420 2755 
Q 1159 2438 1159 1844 
L 1159 0 
L 581 0 
L 581 3500 
L 1159 3500 
L 1159 2956 
Q 1341 3275 1631 3429 
Q 1922 3584 2338 3584 
Q 2397 3584 2469 3576 
Q 2541 3569 2628 3553 
L 2631 2963 
z
" transform="scale(0.015625)"/>
      <path id="DejaVuSans-45" d="M 3116 1747 
Q 3116 2381 2855 2742 
Q 2594 3103 2138 3103 
Q 1681 3103 1420 2742 
Q 1159 2381 1159 1747 
Q 1159 1113 1420 752 
Q 1681 391 2138 391 
Q 2594 391 2855 752 
Q 3116 1113 3116 1747 
z
M 1159 2969 
Q 1341 3281 1617 3432 
Q 1894 3584 2278 3584 
Q 2916 3584 3314 3078 
Q 3713 2572 3713 1747 
Q 3713 922 3314 415 
Q 2916 -91 2278 -91 
Q 1894 -91 1617 61 
Q 1341 213 1159 525 
L 1159 0 
L 581 0 
L 581 4863 
L 1159 4863 
L 1159 2969 
z
" transform="scale(0.015625)"/>
      <path id="DejaVuSans-b" d="M 1984 4856 
Q 1566 4138 1362 3434 
Q 1159 2731 1159 2009 
Q 1159 1288 1364 580 
Q 1569 -128 1984 -844 
L 1484 -844 
Q 1016 -109 783 600 
Q 550 1309 550 2009 
Q 550 2706 781 3412 
Q 1013 4119 1484 4856 
L 1984 4856 
z
" transform="scale(0.015625)"/>
      <path id="DejaVuSans-50" d="M 3328 2828 
Q 3544 3216 3844 3400 
Q 4144 3584 4550 3584 
Q 5097 3584 5394 3201 
Q 5691 2819 5691 2113 
L 5691 0 
L 5113 0 
L 5113 2094 
Q 5113 2597 4934 2840 
Q 4756 3084 4391 3084 
Q 3944 3084 3684 2787 
Q 3425 2491 3425 1978 
L 3425 0 
L 2847 0 
L 2847 2094 
Q 2847 2600 2669 2842 
Q 2491 3084 2119 3084 
Q 1678 3084 1418 2786 
Q 1159 2488 1159 1978 
L 1159 0 
L 581 0 
L 581 3500 
L 1159 3500 
L 1159 2956 
Q 1356 3278 1631 3431 
Q 1906 3584 2284 3584 
Q 2666 3584 2933 3390 
Q 3200 3197 3328 2828 
z
" transform="scale(0.015625)"/>
      <path id="DejaVuSans-4e" d="M 581 4863 
L 1159 4863 
L 1159 1991 
L 2875 3500 
L 3609 3500 
L 1753 1863 
L 3688 0 
L 2938 0 
L 1159 1709 
L 1159 0 
L 581 0 
L 581 4863 
z
" transform="scale(0.015625)"/>
      <path id="DejaVuSans-c" d="M 513 4856 
L 1013 4856 
Q 1481 4119 1714 3412 
Q 1947 2706 1947 2009 
Q 1947 1309 1714 600 
Q 1481 -109 1013 -844 
L 513 -844 
Q 928 -128 1133 580 
Q 1338 1288 1338 2009 
Q 1338 2731 1133 3434 
Q 928 4138 513 4856 
z
" transform="scale(0.015625)"/>
     </defs>
     <use xlink:href="#DejaVuSans-27"/>
     <use xlink:href="#DejaVuSans-48" transform="translate(77 0)"/>
     <use xlink:href="#DejaVuSans-46" transform="translate(138.53125 0)"/>
     <use xlink:href="#DejaVuSans-52" transform="translate(193.515625 0)"/>
     <use xlink:href="#DejaVuSans-47" transform="translate(254.703125 0)"/>
     <use xlink:href="#DejaVuSans-48" transform="translate(318.1875 0)"/>
     <use xlink:href="#DejaVuSans-55" transform="translate(379.71875 0)"/>
     <use xlink:href="#DejaVuSans-3" transform="translate(420.828125 0)"/>
     <use xlink:href="#DejaVuSans-4f" transform="translate(452.609375 0)"/>
     <use xlink:href="#DejaVuSans-44" transform="translate(480.390625 0)"/>
     <use xlink:href="#DejaVuSans-45" transform="translate(541.671875 0)"/>
     <use xlink:href="#DejaVuSans-48" transform="translate(605.15625 0)"/>
     <use xlink:href="#DejaVuSans-4f" transform="translate(666.6875 0)"/>
     <use xlink:href="#DejaVuSans-56" transform="translate(694.46875 0)"/>
     <use xlink:href="#DejaVuSans-3" transform="translate(746.5625 0)"/>
     <use xlink:href="#DejaVuSans-b" transform="translate(778.34375 0)"/>
     <use xlink:href="#DejaVuSans-50" transform="translate(817.359375 0)"/>
     <use xlink:href="#DejaVuSans-44" transform="translate(914.765625 0)"/>
     <use xlink:href="#DejaVuSans-56" transform="translate(976.046875 0)"/>
     <use xlink:href="#DejaVuSans-4e" transform="translate(1028.140625 0)"/>
     <use xlink:href="#DejaVuSans-48" transform="translate(1082.484375 0)"/>
     <use xlink:href="#DejaVuSans-47" transform="translate(1144.015625 0)"/>
     <use xlink:href="#DejaVuSans-3" transform="translate(1207.5 0)"/>
     <use xlink:href="#DejaVuSans-57" transform="translate(1239.28125 0)"/>
     <use xlink:href="#DejaVuSans-4c" transform="translate(1278.484375 0)"/>
     <use xlink:href="#DejaVuSans-50" transform="translate(1306.265625 0)"/>
     <use xlink:href="#DejaVuSans-48" transform="translate(1403.671875 0)"/>
     <use xlink:href="#DejaVuSans-3" transform="translate(1465.203125 0)"/>
     <use xlink:href="#DejaVuSans-53" transform="translate(1496.984375 0)"/>
     <use xlink:href="#DejaVuSans-52" transform="translate(1560.46875 0)"/>
     <use xlink:href="#DejaVuSans-4c" transform="translate(1621.65625 0)"/>
     <use xlink:href="#DejaVuSans-51" transform="translate(1649.4375 0)"/>
     <use xlink:href="#DejaVuSans-57" transform="translate(1712.8125 0)"/>
     <use xlink:href="#DejaVuSans-56" transform="translate(1752.015625 0)"/>
     <use xlink:href="#DejaVuSans-c" transform="translate(1804.109375 0)"/>
    </g>
   </g>
   <g id="legend_1">
    <g id="patch_7">
     <path d="M 630.057656 60.319687 
L 705.026406 60.319687 
Q 707.026406 60.319687 707.026406 58.319687 
L 707.026406 29.318125 
Q 707.026406 27.318125 705.026406 27.318125 
L 630.057656 27.318125 
Q 628.057656 27.318125 628.057656 29.318125 
L 628.057656 58.319687 
Q 628.057656 60.319687 630.057656 60.319687 
z
" style="fill: #ffffff; opacity: 0.8; stroke: #cccccc; stroke-linejoin: miter"/>
    </g>
    <g id="line2d_18">
     <path d="M 632.057656 35.416562 
L 642.057656 35.416562 
L 652.057656 35.416562 
" style="fill: none; stroke: #1f77b4; stroke-width: 1.5; stroke-linecap: square"/>
    </g>
    <g id="text_12">
     <!-- target -->
     <g transform="translate(660.057656 38.916562) scale(0.1 -0.1)">
      <defs>
       <path id="DejaVuSans-4a" d="M 2906 1791 
Q 2906 2416 2648 2759 
Q 2391 3103 1925 3103 
Q 1463 3103 1205 2759 
Q 947 2416 947 1791 
Q 947 1169 1205 825 
Q 1463 481 1925 481 
Q 2391 481 2648 825 
Q 2906 1169 2906 1791 
z
M 3481 434 
Q 3481 -459 3084 -895 
Q 2688 -1331 1869 -1331 
Q 1566 -1331 1297 -1286 
Q 1028 -1241 775 -1147 
L 775 -588 
Q 1028 -725 1275 -790 
Q 1522 -856 1778 -856 
Q 2344 -856 2625 -561 
Q 2906 -266 2906 331 
L 2906 616 
Q 2728 306 2450 153 
Q 2172 0 1784 0 
Q 1141 0 747 490 
Q 353 981 353 1791 
Q 353 2603 747 3093 
Q 1141 3584 1784 3584 
Q 2172 3584 2450 3431 
Q 2728 3278 2906 2969 
L 2906 3500 
L 3481 3500 
L 3481 434 
z
" transform="scale(0.015625)"/>
      </defs>
      <use xlink:href="#DejaVuSans-57"/>
      <use xlink:href="#DejaVuSans-44" transform="translate(39.203125 0)"/>
      <use xlink:href="#DejaVuSans-55" transform="translate(100.484375 0)"/>
      <use xlink:href="#DejaVuSans-4a" transform="translate(139.84375 0)"/>
      <use xlink:href="#DejaVuSans-48" transform="translate(203.328125 0)"/>
      <use xlink:href="#DejaVuSans-57" transform="translate(264.859375 0)"/>
     </g>
    </g>
    <g id="line2d_19">
     <path d="M 632.057656 50.417344 
L 642.057656 50.417344 
L 652.057656 50.417344 
" style="fill: none; stroke: #ff7f0e; stroke-opacity: 0.8; stroke-linecap: square"/>
    </g>
    <g id="text_13">
     <!-- decoded -->
     <g transform="translate(660.057656 53.917344) scale(0.1 -0.1)">
      <use xlink:href="#DejaVuSans-47"/>
      <use xlink:href="#DejaVuSans-48" transform="translate(63.484375 0)"/>
      <use xlink:href="#DejaVuSans-46" transform="translate(125.015625 0)"/>
      <use xlink:href="#DejaVuSans-52" transform="translate(180 0)"/>
      <use xlink:href="#DejaVuSans-47" transform="translate(241.1875 0)"/>
      <use xlink:href="#DejaVuSans-48" transform="translate(304.671875 0)"/>
      <use xlink:href="#DejaVuSans-47" transform="translate(366.203125 0)"/>
     </g>
    </g>
   </g>
  </g>
  <g id="axes_2">
   <g id="patch_8">
    <path d="M 50.466406 458.035781 
L 712.026406 458.035781 
L 712.026406 255.006953 
L 50.466406 255.006953 
z
" style="fill: #ffffff"/>
   </g>
   <g id="matplotlib.axis_3">
    <g id="xtick_7">
     <g id="line2d_20">
      <g>
       <use xlink:href="#md525ca06e0" x="80.537315" y="458.035781" style="stroke: #000000; stroke-width: 0.8"/>
      </g>
     </g>
     <g id="text_14">
      <!-- 0 -->
      <g transform="translate(77.356065 472.633438) scale(0.1 -0.1)">
       <use xlink:href="#DejaVuSans-13"/>
      </g>
     </g>
    </g>
    <g id="xtick_8">
     <g id="line2d_21">
      <g>
       <use xlink:href="#md525ca06e0" x="190.085254" y="458.035781" style="stroke: #000000; stroke-width: 0.8"/>
      </g>
     </g>
     <g id="text_15">
      <!-- 20 -->
      <g transform="translate(183.722754 472.633438) scale(0.1 -0.1)">
       <use xlink:href="#DejaVuSans-15"/>
       <use xlink:href="#DejaVuSans-13" transform="translate(63.625 0)"/>
      </g>
     </g>
    </g>
    <g id="xtick_9">
     <g id="line2d_22">
      <g>
       <use xlink:href="#md525ca06e0" x="299.633192" y="458.035781" style="stroke: #000000; stroke-width: 0.8"/>
      </g>
     </g>
     <g id="text_16">
      <!-- 40 -->
      <g transform="translate(293.270692 472.633438) scale(0.1 -0.1)">
       <defs>
        <path id="DejaVuSans-17" d="M 2419 4116 
L 825 1625 
L 2419 1625 
L 2419 4116 
z
M 2253 4666 
L 3047 4666 
L 3047 1625 
L 3713 1625 
L 3713 1100 
L 3047 1100 
L 3047 0 
L 2419 0 
L 2419 1100 
L 313 1100 
L 313 1709 
L 2253 4666 
z
" transform="scale(0.015625)"/>
       </defs>
       <use xlink:href="#DejaVuSans-17"/>
       <use xlink:href="#DejaVuSans-13" transform="translate(63.625 0)"/>
      </g>
     </g>
    </g>
    <g id="xtick_10">
     <g id="line2d_23">
      <g>
       <use xlink:href="#md525ca06e0" x="409.181131" y="458.035781" style="stroke: #000000; stroke-width: 0.8"/>
      </g>
     </g>
     <g id="text_17">
      <!-- 60 -->
      <g transform="translate(402.818631 472.633438) scale(0.1 -0.1)">
       <defs>
        <path id="DejaVuSans-19" d="M 2113 2584 
Q 1688 2584 1439 2293 
Q 1191 2003 1191 1497 
Q 1191 994 1439 701 
Q 1688 409 2113 409 
Q 2538 409 2786 701 
Q 3034 994 3034 1497 
Q 3034 2003 2786 2293 
Q 2538 2584 2113 2584 
z
M 3366 4563 
L 3366 3988 
Q 3128 4100 2886 4159 
Q 2644 4219 2406 4219 
Q 1781 4219 1451 3797 
Q 1122 3375 1075 2522 
Q 1259 2794 1537 2939 
Q 1816 3084 2150 3084 
Q 2853 3084 3261 2657 
Q 3669 2231 3669 1497 
Q 3669 778 3244 343 
Q 2819 -91 2113 -91 
Q 1303 -91 875 529 
Q 447 1150 447 2328 
Q 447 3434 972 4092 
Q 1497 4750 2381 4750 
Q 2619 4750 2861 4703 
Q 3103 4656 3366 4563 
z
" transform="scale(0.015625)"/>
       </defs>
       <use xlink:href="#DejaVuSans-19"/>
       <use xlink:href="#DejaVuSans-13" transform="translate(63.625 0)"/>
      </g>
     </g>
    </g>
    <g id="xtick_11">
     <g id="line2d_24">
      <g>
       <use xlink:href="#md525ca06e0" x="518.729069" y="458.035781" style="stroke: #000000; stroke-width: 0.8"/>
      </g>
     </g>
     <g id="text_18">
      <!-- 80 -->
      <g transform="translate(512.366569 472.633438) scale(0.1 -0.1)">
       <defs>
        <path id="DejaVuSans-1b" d="M 2034 2216 
Q 1584 2216 1326 1975 
Q 1069 1734 1069 1313 
Q 1069 891 1326 650 
Q 1584 409 2034 409 
Q 2484 409 2743 651 
Q 3003 894 3003 1313 
Q 3003 1734 2745 1975 
Q 2488 2216 2034 2216 
z
M 1403 2484 
Q 997 2584 770 2862 
Q 544 3141 544 3541 
Q 544 4100 942 4425 
Q 1341 4750 2034 4750 
Q 2731 4750 3128 4425 
Q 3525 4100 3525 3541 
Q 3525 3141 3298 2862 
Q 3072 2584 2669 2484 
Q 3125 2378 3379 2068 
Q 3634 1759 3634 1313 
Q 3634 634 3220 271 
Q 2806 -91 2034 -91 
Q 1263 -91 848 271 
Q 434 634 434 1313 
Q 434 1759 690 2068 
Q 947 2378 1403 2484 
z
M 1172 3481 
Q 1172 3119 1398 2916 
Q 1625 2713 2034 2713 
Q 2441 2713 2670 2916 
Q 2900 3119 2900 3481 
Q 2900 3844 2670 4047 
Q 2441 4250 2034 4250 
Q 1625 4250 1398 4047 
Q 1172 3844 1172 3481 
z
" transform="scale(0.015625)"/>
       </defs>
       <use xlink:href="#DejaVuSans-1b"/>
       <use xlink:href="#DejaVuSans-13" transform="translate(63.625 0)"/>
      </g>
     </g>
    </g>
    <g id="xtick_12">
     <g id="line2d_25">
      <g>
       <use xlink:href="#md525ca06e0" x="628.277007" y="458.035781" style="stroke: #000000; stroke-width: 0.8"/>
      </g>
     </g>
     <g id="text_19">
      <!-- 100 -->
      <g transform="translate(618.733257 472.633438) scale(0.1 -0.1)">
       <use xlink:href="#DejaVuSans-14"/>
       <use xlink:href="#DejaVuSans-13" transform="translate(63.625 0)"/>
       <use xlink:href="#DejaVuSans-13" transform="translate(127.25 0)"/>
      </g>
     </g>
    </g>
    <g id="text_20">
     <!-- Time (ms) -->
     <g transform="translate(356.044844 486.634219) scale(0.1 -0.1)">
      <defs>
       <path id="DejaVuSans-37" d="M -19 4666 
L 3928 4666 
L 3928 4134 
L 2272 4134 
L 2272 0 
L 1638 0 
L 1638 4134 
L -19 4134 
L -19 4666 
z
" transform="scale(0.015625)"/>
      </defs>
      <use xlink:href="#DejaVuSans-37"/>
      <use xlink:href="#DejaVuSans-4c" transform="translate(58 0)"/>
      <use xlink:href="#DejaVuSans-50" transform="translate(85.78125 0)"/>
      <use xlink:href="#DejaVuSans-48" transform="translate(183.1875 0)"/>
      <use xlink:href="#DejaVuSans-3" transform="translate(244.71875 0)"/>
      <use xlink:href="#DejaVuSans-b" transform="translate(276.5 0)"/>
      <use xlink:href="#DejaVuSans-50" transform="translate(315.515625 0)"/>
      <use xlink:href="#DejaVuSans-56" transform="translate(412.921875 0)"/>
      <use xlink:href="#DejaVuSans-c" transform="translate(465.015625 0)"/>
     </g>
    </g>
   </g>
   <g id="matplotlib.axis_4">
    <g id="ytick_10">
     <g id="line2d_26">
      <g>
       <use xlink:href="#m2af0b9ce78" x="50.466406" y="454.131381" style="stroke: #000000; stroke-width: 0.8"/>
      </g>
     </g>
     <g id="text_21">
      <!-- 0.0 -->
      <g transform="translate(27.563281 457.930209) scale(0.1 -0.1)">
       <use xlink:href="#DejaVuSans-13"/>
       <use xlink:href="#DejaVuSans-11" transform="translate(63.625 0)"/>
       <use xlink:href="#DejaVuSans-13" transform="translate(95.40625 0)"/>
      </g>
     </g>
    </g>
    <g id="ytick_11">
     <g id="line2d_27">
      <g>
       <use xlink:href="#m2af0b9ce78" x="50.466406" y="415.087375" style="stroke: #000000; stroke-width: 0.8"/>
      </g>
     </g>
     <g id="text_22">
      <!-- 0.2 -->
      <g transform="translate(27.563281 418.886203) scale(0.1 -0.1)">
       <use xlink:href="#DejaVuSans-13"/>
       <use xlink:href="#DejaVuSans-11" transform="translate(63.625 0)"/>
       <use xlink:href="#DejaVuSans-15" transform="translate(95.40625 0)"/>
      </g>
     </g>
    </g>
    <g id="ytick_12">
     <g id="line2d_28">
      <g>
       <use xlink:href="#m2af0b9ce78" x="50.466406" y="376.04337" style="stroke: #000000; stroke-width: 0.8"/>
      </g>
     </g>
     <g id="text_23">
      <!-- 0.4 -->
      <g transform="translate(27.563281 379.842198) scale(0.1 -0.1)">
       <use xlink:href="#DejaVuSans-13"/>
       <use xlink:href="#DejaVuSans-11" transform="translate(63.625 0)"/>
       <use xlink:href="#DejaVuSans-17" transform="translate(95.40625 0)"/>
      </g>
     </g>
    </g>
    <g id="ytick_13">
     <g id="line2d_29">
      <g>
       <use xlink:href="#m2af0b9ce78" x="50.466406" y="336.999364" style="stroke: #000000; stroke-width: 0.8"/>
      </g>
     </g>
     <g id="text_24">
      <!-- 0.6 -->
      <g transform="translate(27.563281 340.798193) scale(0.1 -0.1)">
       <use xlink:href="#DejaVuSans-13"/>
       <use xlink:href="#DejaVuSans-11" transform="translate(63.625 0)"/>
       <use xlink:href="#DejaVuSans-19" transform="translate(95.40625 0)"/>
      </g>
     </g>
    </g>
    <g id="ytick_14">
     <g id="line2d_30">
      <g>
       <use xlink:href="#m2af0b9ce78" x="50.466406" y="297.955359" style="stroke: #000000; stroke-width: 0.8"/>
      </g>
     </g>
     <g id="text_25">
      <!-- 0.8 -->
      <g transform="translate(27.563281 301.754187) scale(0.1 -0.1)">
       <use xlink:href="#DejaVuSans-13"/>
       <use xlink:href="#DejaVuSans-11" transform="translate(63.625 0)"/>
       <use xlink:href="#DejaVuSans-1b" transform="translate(95.40625 0)"/>
      </g>
     </g>
    </g>
    <g id="ytick_15">
     <g id="line2d_31">
      <g>
       <use xlink:href="#m2af0b9ce78" x="50.466406" y="258.911354" style="stroke: #000000; stroke-width: 0.8"/>
      </g>
     </g>
     <g id="text_26">
      <!-- 1.0 -->
      <g transform="translate(27.563281 262.710182) scale(0.1 -0.1)">
       <use xlink:href="#DejaVuSans-14"/>
       <use xlink:href="#DejaVuSans-11" transform="translate(63.625 0)"/>
       <use xlink:href="#DejaVuSans-13" transform="translate(95.40625 0)"/>
      </g>
     </g>
    </g>
    <g id="text_27">
     <!-- accuracy -->
     <g transform="translate(21.160938 379.080742) rotate(-90) scale(0.1 -0.1)">
      <defs>
       <path id="DejaVuSans-5c" d="M 2059 -325 
Q 1816 -950 1584 -1140 
Q 1353 -1331 966 -1331 
L 506 -1331 
L 506 -850 
L 844 -850 
Q 1081 -850 1212 -737 
Q 1344 -625 1503 -206 
L 1606 56 
L 191 3500 
L 800 3500 
L 1894 763 
L 2988 3500 
L 3597 3500 
L 2059 -325 
z
" transform="scale(0.015625)"/>
      </defs>
      <use xlink:href="#DejaVuSans-44"/>
      <use xlink:href="#DejaVuSans-46" transform="translate(61.28125 0)"/>
      <use xlink:href="#DejaVuSans-46" transform="translate(116.265625 0)"/>
      <use xlink:href="#DejaVuSans-58" transform="translate(171.25 0)"/>
      <use xlink:href="#DejaVuSans-55" transform="translate(234.625 0)"/>
      <use xlink:href="#DejaVuSans-44" transform="translate(275.734375 0)"/>
      <use xlink:href="#DejaVuSans-46" transform="translate(337.015625 0)"/>
      <use xlink:href="#DejaVuSans-5c" transform="translate(392 0)"/>
     </g>
    </g>
   </g>
   <g id="line2d_32">
    <path d="M 122.165532 454.131381 
L 122.713272 454.131381 
L 123.261011 389.058038 
L 123.808751 356.521367 
L 124.356491 336.999364 
L 124.90423 323.984696 
L 125.45197 314.688504 
L 125.99971 307.71636 
L 127.095189 297.955359 
L 128.190669 291.448025 
L 129.286148 286.799929 
L 130.381627 307.71636 
L 131.477107 323.984696 
L 132.572586 336.999364 
L 133.120326 342.57708 
L 134.215805 335.301799 
L 135.311285 329.190563 
L 136.406764 323.984696 
L 138.049983 317.477362 
L 138.597723 321.885556 
L 140.240942 316.329009 
L 141.884161 311.673523 
L 143.52738 307.71636 
L 144.07512 311.287458 
L 145.718339 307.71636 
L 147.361558 304.601147 
L 149.004777 301.85976 
L 149.552517 301.85976 
L 150.100256 297.955359 
L 154.482174 297.955359 
L 155.577653 305.76416 
L 156.673133 305.76416 
L 159.959571 282.337757 
L 165.984707 282.337757 
L 166.532447 286.242157 
L 181.869158 286.242157 
L 182.964638 278.433356 
L 198.301349 278.433356 
L 198.849089 274.528956 
L 203.778746 274.528956 
L 204.326486 270.624555 
L 209.256143 270.624555 
L 209.803883 274.528956 
L 220.210937 274.528956 
L 221.306416 266.720155 
L 225.688334 266.720155 
L 226.236073 270.624555 
L 231.165731 270.624555 
L 232.26121 278.433356 
L 247.597921 278.433356 
L 248.693401 286.242157 
L 258.552715 286.242157 
L 259.648195 278.433356 
L 261.291414 278.433356 
L 264.030112 297.955359 
L 264.577852 294.050959 
L 270.055249 294.050959 
L 270.602988 297.955359 
L 275.532646 297.955359 
L 276.080385 294.050959 
L 285.9397 294.050959 
L 287.582919 305.76416 
L 288.678398 305.76416 
L 291.417097 286.242157 
L 308.397027 286.242157 
L 308.944767 290.146558 
L 313.326684 290.146558 
L 314.969904 278.433356 
L 318.804081 278.433356 
L 319.351821 282.337757 
L 335.784012 282.337757 
L 336.331752 278.433356 
L 340.713669 278.433356 
L 341.261409 282.337757 
L 368.648393 282.337757 
L 369.196133 286.242157 
L 379.603187 286.242157 
L 380.150927 282.337757 
L 390.557981 282.337757 
L 391.65346 290.146558 
L 395.487638 290.146558 
L 396.583118 282.337757 
L 401.512775 282.337757 
L 406.442432 317.477362 
L 406.990172 313.572961 
L 417.944966 313.572961 
L 419.040445 305.76416 
L 422.874623 305.76416 
L 423.970102 313.572961 
L 428.35202 313.572961 
L 433.829417 274.528956 
L 434.377156 278.433356 
L 444.784211 278.433356 
L 445.33195 274.528956 
L 450.261607 274.528956 
L 451.357087 266.720155 
L 455.739004 266.720155 
L 456.286744 270.624555 
L 466.693798 270.624555 
L 467.241538 266.720155 
L 472.171195 266.720155 
L 473.266675 274.528956 
L 477.648592 274.528956 
L 478.744071 282.337757 
L 483.125989 282.337757 
L 483.673729 278.433356 
L 494.080783 278.433356 
L 494.628522 282.337757 
L 499.55818 282.337757 
L 500.653659 274.528956 
L 505.583316 274.528956 
L 506.131056 270.624555 
L 510.512974 270.624555 
L 511.060713 274.528956 
L 526.945164 274.528956 
L 528.040644 282.337757 
L 549.402492 282.337757 
L 549.950231 286.242157 
L 554.879889 286.242157 
L 555.427628 282.337757 
L 560.357286 282.337757 
L 561.452765 290.146558 
L 565.834682 290.146558 
L 566.382422 294.050959 
L 569.66886 294.050959 
L 570.76434 301.85976 
L 571.312079 297.955359 
L 576.789476 297.955359 
L 577.337216 294.050959 
L 582.266873 294.050959 
L 582.814613 297.955359 
L 587.74427 297.955359 
L 588.83975 290.146558 
L 593.221667 290.146558 
L 593.769407 286.242157 
L 597.055845 286.242157 
L 598.151324 278.433356 
L 599.246804 286.242157 
L 603.628721 286.242157 
L 604.176461 282.337757 
L 609.653858 282.337757 
L 610.201598 278.433356 
L 614.583515 278.433356 
L 615.131255 274.528956 
L 617.869953 274.528956 
L 620.060912 290.146558 
L 626.086049 290.146558 
L 626.633788 286.242157 
L 634.849884 286.242157 
L 636.493103 297.955359 
L 637.040842 294.050959 
L 641.9705 294.050959 
L 642.518239 297.955359 
L 645.256938 297.955359 
L 647.447897 282.337757 
L 647.995636 282.337757 
L 648.543376 286.242157 
L 658.40269 286.242157 
L 658.95043 290.146558 
L 662.236868 290.146558 
L 663.880087 278.433356 
L 664.427827 282.337757 
L 668.809745 282.337757 
L 669.357484 282.815847 
L 669.905224 279.246773 
L 672.096183 281.095448 
L 673.739402 282.718674 
L 674.834881 283.939562 
L 675.930361 274.740005 
L 677.57358 276.13665 
L 679.216799 277.803614 
L 680.312278 279.106529 
L 680.860018 272.855641 
L 681.955497 273.928279 
L 681.955497 273.928279 
" clip-path="url(#p40b2d52809)" style="fill: none; stroke: #2ca02c; stroke-width: 1.5; stroke-linecap: square"/>
   </g>
   <g id="line2d_33">
    <path d="M 50.466406 285.097023 
L 712.026406 285.097023 
" clip-path="url(#p40b2d52809)" style="fill: none; stroke-dasharray: 3.7,1.6; stroke-dashoffset: 0; stroke: #000000"/>
   </g>
   <g id="patch_9">
    <path d="M 50.466406 458.035781 
L 50.466406 255.006953 
" style="fill: none; stroke: #000000; stroke-width: 0.8; stroke-linejoin: miter; stroke-linecap: square"/>
   </g>
   <g id="patch_10">
    <path d="M 712.026406 458.035781 
L 712.026406 255.006953 
" style="fill: none; stroke: #000000; stroke-width: 0.8; stroke-linejoin: miter; stroke-linecap: square"/>
   </g>
   <g id="patch_11">
    <path d="M 50.466406 458.035781 
L 712.026406 458.035781 
" style="fill: none; stroke: #000000; stroke-width: 0.8; stroke-linejoin: miter; stroke-linecap: square"/>
   </g>
   <g id="patch_12">
    <path d="M 50.466406 255.006953 
L 712.026406 255.006953 
" style="fill: none; stroke: #000000; stroke-width: 0.8; stroke-linejoin: miter; stroke-linecap: square"/>
   </g>
   <g id="text_28">
    <!-- Decoder accuracy = 0.866 -->
    <g transform="translate(301.000156 249.006953) scale(0.12 -0.12)">
     <defs>
      <path id="DejaVuSans-20" d="M 678 2906 
L 4684 2906 
L 4684 2381 
L 678 2381 
L 678 2906 
z
M 678 1631 
L 4684 1631 
L 4684 1100 
L 678 1100 
L 678 1631 
z
" transform="scale(0.015625)"/>
     </defs>
     <use xlink:href="#DejaVuSans-27"/>
     <use xlink:href="#DejaVuSans-48" transform="translate(77 0)"/>
     <use xlink:href="#DejaVuSans-46" transform="translate(138.53125 0)"/>
     <use xlink:href="#DejaVuSans-52" transform="translate(193.515625 0)"/>
     <use xlink:href="#DejaVuSans-47" transform="translate(254.703125 0)"/>
     <use xlink:href="#DejaVuSans-48" transform="translate(318.1875 0)"/>
     <use xlink:href="#DejaVuSans-55" transform="translate(379.71875 0)"/>
     <use xlink:href="#DejaVuSans-3" transform="translate(420.828125 0)"/>
     <use xlink:href="#DejaVuSans-44" transform="translate(452.609375 0)"/>
     <use xlink:href="#DejaVuSans-46" transform="translate(513.890625 0)"/>
     <use xlink:href="#DejaVuSans-46" transform="translate(568.875 0)"/>
     <use xlink:href="#DejaVuSans-58" transform="translate(623.859375 0)"/>
     <use xlink:href="#DejaVuSans-55" transform="translate(687.234375 0)"/>
     <use xlink:href="#DejaVuSans-44" transform="translate(728.34375 0)"/>
     <use xlink:href="#DejaVuSans-46" transform="translate(789.625 0)"/>
     <use xlink:href="#DejaVuSans-5c" transform="translate(844.609375 0)"/>
     <use xlink:href="#DejaVuSans-3" transform="translate(903.796875 0)"/>
     <use xlink:href="#DejaVuSans-20" transform="translate(935.578125 0)"/>
     <use xlink:href="#DejaVuSans-3" transform="translate(1019.375 0)"/>
     <use xlink:href="#DejaVuSans-13" transform="translate(1051.15625 0)"/>
     <use xlink:href="#DejaVuSans-11" transform="translate(1114.78125 0)"/>
     <use xlink:href="#DejaVuSans-1b" transform="translate(1146.5625 0)"/>
     <use xlink:href="#DejaVuSans-19" transform="translate(1210.1875 0)"/>
     <use xlink:href="#DejaVuSans-19" transform="translate(1273.8125 0)"/>
    </g>
   </g>
  </g>
 </g>
 <defs>
  <clipPath id="p803f572195">
   <rect x="50.466406" y="22.318125" width="661.56" height="203.028828"/>
  </clipPath>
  <clipPath id="p40b2d52809">
   <rect x="50.466406" y="255.006953" width="661.56" height="203.028828"/>
  </clipPath>
 </defs>
</svg>
